<svg version="1.2" xmlns="http://www.w3.org/2000/svg" viewBox="0 0 512 512" width="512" height="512">
	<style>
		.s0 { fill: #000000 } 
	</style>
	<g>
		<path class="s0" d="m0 256v256h256 256v-256-256h-256-256zm290.36-241.22c36.54 5.38 68.61 17.41 97.94 36.53 60.24 39.41 99.53 101.14 109.27 171.82 2.4 16.83 2.4 48.91 0 65.74-14.89 108.7-100 193.81-208.7 208.7-16.72 2.4-47.65 2.4-65.17 0.11-97.7-12.83-179.6-85.45-203.77-180.74-11.91-47.08-9.28-100.69 7.22-145.13 11.79-31.73 29.55-59.79 53.6-84.64 33.45-34.48 70.44-56.01 116.26-67.7 27.38-6.98 64.83-8.82 93.35-4.69z"/>
		<path class="s0" d="m225.65 22.45c-5.96 0.8-11.23 1.49-11.69 1.49-0.57 0.11-0.91 13.17-0.91 29.09 0 16.04-0.35 49.26-0.8 74l-0.69 44.9-8.13-0.35-8.02-0.34 0.23-16.61c0.11-9.16 0.57-41.46 0.91-71.93 0.69-46.96 0.58-55.21-0.8-54.75-0.92 0.23-5.73 1.83-10.88 3.55l-9.28 2.98-0.69 24.85c-0.45 13.63-0.8 44.79-0.8 69.19v44.44h-9.16-9.28l0.57-6.65c1.04-11.68 2.07-123.93 1.04-123.93-0.46 0.11-5.5 2.52-11.23 5.5l-10.31 5.38-0.34 59.79-0.23 59.91h-8.59-8.59l-0.23-53.95-0.35-53.84-11.11 9.17-11.22 9.28v44.67 44.67h-8.02-8.02v-35.62c0-40.78 0.92-38.72-10.53-23.6-34.37 45.13-51.43 103.2-46.97 159.78 3.67 46.05 19.02 87.29 46.28 123.71l8.36 11.11 0.34-53.61 0.23-53.49h7.45 7.44v61.63 61.62l4.93 4.58c2.63 2.52 7.67 7.1 11.22 9.97l6.42 5.38 0.69-35.28c0.45-19.36 0.8-51.54 0.8-71.59v-36.31h6.87 6.87v76.63 76.74l6.65 3.9c3.55 2.18 8.7 5.04 11.22 6.3l4.7 2.4 0.91-82.35 0.8-82.47h7.34 7.33v86.25 86.36l10.65 3.55c5.73 2.07 11.22 3.67 12.03 3.67 1.03 0 1.37-7.9 1.37-35.85 0-19.59 0.34-60.14 0.8-89.92l0.69-54.06h7.56 7.56l-0.23 70.79c-0.23 38.83-0.46 80.29-0.69 92.09l-0.23 21.53 2.87 0.57c18.09 3.67 49.02 4.93 69.29 2.98 91.75-9.05 170.44-72.16 199.76-160.36 5.62-16.95 11.57-47.65 11.57-59.67 0-0.69-3.43-1.15-8.59-1.15-7.1 0-8.59-0.34-8.59-1.83 0-1.49-0.57-1.37-2.98 0.57-6.41 5.04-17.52 1.72-19.35-5.84-0.35-1.37-0.46-13.52-0.35-26.69l0.35-24.05 8.93-0.34 8.82-0.35v23.6c0 14.89 0.46 23.48 1.15 23.48 0.68 0 1.48 0 2.06 0 0.46 0 1.03-10.43 1.37-23.14l0.57-23.25 6.42-0.34 6.41-0.35-2.63-11.11c-5.84-24.85-17.53-51.2-32.88-74.34-23.59-35.62-55.66-63.45-94.15-81.78-23.48-11.22-49.94-18.78-75.25-21.53-14.78-1.72-43.53-1.38-57.04 0.57zm29.32 85.91c1.37 0.8 2.98 3.09 3.66 4.92 1.15 3.21 1.04 3.55-1.14 3.55-1.26 0-3.32-1.26-4.58-2.86-3.1-3.9-8.02-3.78-11.11 0.11-3.32 4.24-3.32 13.86 0 18.1 3.55 4.47 8.93 3.78 11.34-1.26 1.14-2.52 2.52-3.78 4.35-3.78 2.98 0 2.98 0.12 0.92 5.04-2.07 4.93-5.85 7.56-11.12 7.56-9.27 0-15.23-10.42-12.48-21.88 2.52-10.53 11.68-14.89 20.16-9.5zm14.2 11.91v13.74h6.87c6.65 0 6.88 0.12 6.88 2.87 0 2.98 0 2.98-9.4 2.63l-9.5-0.34-0.35-14.78c-0.11-8.25 0-15.58 0.23-16.38 0.35-0.8 1.72-1.49 2.98-1.49 2.18 0 2.29 0.69 2.29 13.75zm21.99-1.03c0.35 10.99 0.69 12.94 2.52 14.32 1.26 0.91 3.44 1.6 4.81 1.6 4.47 0 5.62-2.98 5.96-16.15 0.46-11.34 0.69-12.49 2.64-12.49 2.06 0 2.17 1.03 2.17 13.29 0 13.06 0 13.29-3.32 16.61-2.63 2.63-4.35 3.32-8.13 3.32-3.78 0-5.5-0.69-8.13-3.32-3.33-3.32-3.33-3.55-3.33-16.61 0-12.37 0.12-13.29 2.18-13.29 2.06 0 2.29 1.15 2.63 12.72zm43.07-10.88c2.87 1.94 3.55 9.27 1.15 11.68-1.03 1.03-0.92 1.83 0.57 3.44 1.15 1.26 1.95 4 1.95 6.75 0 6.88-2.64 8.59-13.75 9.28l-9.16 0.57v-16.83-16.73h8.36c5.61 0 9.16 0.58 10.88 1.84zm54.41 43.98c2.52 2.86 3.09 4.47 3.09 9.62 0 7.56-3.66 12.83-9.62 13.86-11.22 2.18-18.78-9.05-13.86-20.73 3.21-7.9 14.32-9.39 20.39-2.75zm-148.1 1.72v5.15h5.72 5.73v-5.15c0-4.7 0.23-5.16 2.86-5.16h2.87v13.18 13.17h-2.87c-2.63 0-2.86-0.35-2.86-5.73v-5.73h-5.73-5.72v5.73c0 4.93-0.35 5.73-2.29 5.73-2.18 0-2.29-0.8-2.29-13.17 0-12.37 0.11-13.18 2.29-13.18 1.94 0 2.29 0.81 2.29 5.16zm35.73-2.06c0.69 1.83 2.64 6.75 4.36 11.22 1.71 4.35 3.55 8.94 4.01 9.97 0.68 1.6 0.22 2.06-2.07 2.06-2.29 0-3.09-0.69-3.66-3.44-0.69-3.21-1.03-3.43-6.3-3.43-5.04 0-5.61 0.22-6.76 3.43-0.8 2.41-1.95 3.44-3.66 3.44-1.49 0-2.18-0.57-1.95-1.49 7.67-20.96 9.5-24.86 12.14-24.86 1.72 0 2.98 1.03 3.89 3.1zm22.22 6.07l5.62 9.16 0.34-9.16c0.34-8.25 0.57-9.17 2.52-9.17 2.18 0 2.29 0.81 2.29 13.18 0 12.94 0 13.17-2.52 13.17-2.06 0-4.01-2.18-8.59-9.51l-5.95-9.39-0.12 9.39c0 8.71-0.23 9.51-2.29 9.51-2.18 0-2.29-0.8-2.29-13.17 0-13.06 0-13.18 2.75-13.18 2.17 0 3.78 1.84 8.24 9.17zm35.4-6.19c5.27 5.61 5.15 15.12-0.23 20.39-2.64 2.63-3.9 2.98-10.77 2.98h-7.9v-13.17-13.18h8.02c7.33 0 8.36 0.35 10.88 2.98zm26.92-0.69c2.74 2.75 2.86 4.47 0.68 7.45-1.37 1.95-1.37 2.52 0.58 5.04 2.74 3.44 2.74 4.81-0.23 8.59-2.18 2.75-2.98 2.98-11.46 2.98h-9.05v-13.17-13.18h8.59c7.11 0 9.05 0.46 10.89 2.29zm40.08 8.6v10.76l6.53 0.35c5.27 0.22 6.76 0.8 6.99 2.29 0.34 1.83-0.69 2.06-8.82 2.06h-9.28v-13.17c0-12.37 0.12-13.18 2.29-13.18 2.18 0 2.29 0.81 2.29 10.89zm-31.15 74.1l0.23 35.28h-9.74c-5.84 0-9.73-0.46-9.73-1.14 0-0.69-1.49-0.46-3.44 0.57-5.61 2.86-12.26 2.29-16.15-1.6l-3.32-3.33v-22.56c0-25.08 0.69-28.06 6.99-30.24 5.15-1.83 7.9-1.6 12.82 1.03l4.24 2.29v-7.21c0-4.01 0.35-7.68 0.8-8.14 0.46-0.45 4.47-0.57 8.94-0.45l8.02 0.34zm-160.13-29.55c0 2.86 0.57 4.01 2.29 4.46 1.83 0.46 2.29 1.61 2.29 5.27 0 3.9-0.34 4.7-2.29 4.7-2.18 0-2.29 0.8-2.29 18.78 0 17.76 0.11 18.79 2.29 19.36 1.83 0.46 2.29 1.61 2.29 5.39v4.81l-8.71-0.46c-7.9-0.35-9.05-0.69-11.45-3.55-2.63-3.1-2.75-3.78-2.75-23.83 0-17.41-0.23-20.5-1.72-20.5-1.26 0-1.72-1.37-1.72-5.15 0-3.78 0.46-5.16 1.72-5.16 1.15 0 1.72-1.26 1.72-4.01v-4.01h9.16 9.17zm-119.93 6.3c4.58 2.75 6.53 6.65 6.53 12.72v4.58h-8.02c-8.01 0-8.01 0-8.01-3.21 0-4.12-1.61-6.41-3.9-5.61-2.4 0.92-2.4 5.84 0 8.25 1.03 0.91 4.01 2.86 6.64 4.12 8.48 4.35 11.69 7.44 13.29 12.83 2.86 10.31-1.6 20.16-10.08 22.56-6.07 1.61-15.69 1.38-20.27-0.46-5.04-2.17-7.22-5.61-8.13-13.63l-0.81-6.52h8.82 8.71v5.15c0 4.35 0.34 5.15 2.29 5.15 2.98 0 4.24-4.92 2.18-8.13-0.92-1.26-4.7-4.01-8.48-6.07-9.62-5.38-12.37-9.62-11.8-18.67 0.35-6.07 1.03-7.79 3.78-10.65 1.83-1.95 4.93-4.01 6.87-4.58 5.39-1.72 16.04-0.58 20.39 2.17zm43.53 0c2.29 1.38 4.58 4.01 5.27 6.07 0.8 2.07 1.26 13.06 1.26 26.81v23.36h-8.59c-4.7 0-8.59-0.46-8.59-1.03 0-0.69-1.84-0.34-4.01 0.57-6.3 2.52-10.66 2.07-14.44-1.71-3.2-3.21-3.32-3.9-3.32-13.18 0-11.56 0.92-12.82 11.46-16.6 3.78-1.38 7.56-3.67 8.59-5.04 2.17-3.1 2.17-8.82 0.23-11.69-2.64-3.43-4.24-0.91-4.24 6.42v6.75h-8.02-8.02v-6.29c0-8.37 2.41-12.83 8.36-15.58 6.42-2.98 18.22-2.41 24.06 1.14zm45.36-1.72c5.38 2.87 5.84 5.62 5.84 32.76v25.2h-8.59-8.59v-22.91c0-20.04-0.23-23.02-1.84-23.71-1.03-0.34-2.29 0-2.86 0.92-0.57 0.92-1.03 11.57-1.03 23.6v22.1h-8.59-8.59l0.23-28.98 0.34-28.86 8.36-0.34c6.76-0.23 8.36 0 8.94 1.48 0.68 1.61 1.03 1.61 2.63 0.23 3.78-3.43 8.94-3.89 13.75-1.49zm90.6 3.56c6.3 3.2 6.87 5.95 6.87 32.64v24.05h-8.59c-6.99 0-8.59-0.34-8.59-1.83 0-1.49-0.57-1.37-3.32 0.57-5.16 3.67-12.03 3.21-16.27-0.91-3.09-3.21-3.32-3.9-3.32-13.17 0-9.05 0.23-9.86 2.98-12.03 1.6-1.26 5.84-3.44 9.39-4.7 3.55-1.37 7.1-2.98 7.91-3.66 2.29-1.84 1.94-13.4-0.35-14.32-2.63-1.03-3.89 1.72-3.89 8.48v6.07h-8.02-8.02v-6.3c0-10.08 3.21-14.44 12.03-16.73 4.92-1.37 17.07-0.23 21.19 1.84zm46.27-1.26c6.53 2.74 7.56 7.33 7.56 34.47v23.48h-9.16-9.16v-22.1c0-12.03-0.46-22.68-1.03-23.6-0.58-0.91-1.84-1.26-2.87-0.91-1.6 0.68-1.83 3.66-1.83 23.71v22.9h-9.16-9.17v-28.63-28.64h9.17c7.78 0 9.16 0.23 9.16 1.95 0 1.6 0.34 1.6 2.63-0.46 4.47-4.12 8.02-4.69 13.86-2.17zm87.74 9.27v10.88h-3.32c-6.41 0-6.99 1.84-6.99 20.74v17.06h-9.16-9.16v-28.63-28.64h8.59 8.59v3.1 3.2l2.63-3.09c1.95-2.52 5.39-4.58 8.59-5.38 0.12-0.12 0.23 4.81 0.23 10.76zm30.36-9.62c9.73 2.64 15.11 12.14 14.08 25.09l-0.34 5.15-11.8 0.34-11.8 0.35 0.35 8.82c0.34 7.9 0.57 8.82 2.63 8.82 2.06 0 2.29-0.92 2.64-7.22l0.34-7.21 8.82 0.34 8.82 0.34-0.23 6.19q-0.86 17.01-17.52 18.21c-12.14 0.92-20.28-3.78-22.8-12.94-1.6-5.96-1.6-28.52 0-34.25 2.75-10.08 14.55-15.35 26.81-12.03z"/>
		<path class="s0" d="m320.37 111.79c-0.46 0.46-0.8 2.64-0.8 4.7v3.89l5.27-0.34c6.18-0.34 8.82-2.98 6.64-6.41-1.26-1.95-9.5-3.44-11.11-1.84z"/>
		<path class="s0" d="m319.57 129.43v4.58h6.3c5.73 0 6.3-0.23 6.99-2.86 1.03-4.35-1.26-6.3-7.68-6.3h-5.61z"/>
		<path class="s0" d="m373.86 154.75c-1.37 1.6-2.17 4.12-2.17 7.33 0 8.59 7.67 12.94 13.17 7.44 2.86-2.86 3.09-10.88 0.46-14.66-2.29-3.32-8.48-3.44-11.46-0.11z"/>
		<path class="s0" d="m271.12 156.35c-0.46 1.83-1.03 4.58-1.49 5.96-0.69 2.29-0.34 2.63 2.98 2.63 3.89 0 3.89-0.34 0.69-8.59l-1.38-3.44z"/>
		<path class="s0" d="m319.57 162.19v9.97l4.58-0.69c6.76-0.92 8.02-2.41 8.02-9.51 0-6.99-2.41-9.62-8.82-9.62h-3.78z"/>
		<path class="s0" d="m347.06 155.66c0 3.44 0.11 3.55 5.27 3.55 5.04 0 5.15-0.11 4.81-3.2-0.34-2.75-0.8-3.1-5.15-3.44-4.82-0.34-4.93-0.23-4.93 3.09z"/>
		<path class="s0" d="m347.06 167.69c0 4.01 0.11 4.12 4.35 4.12 5.5 0 7.45-1.37 6.88-4.69-0.35-2.41-1.04-2.75-5.73-3.1l-5.5-0.34z"/>
		<path class="s0" d="m346.49 222.44c-0.35 0.92-0.46 9.28-0.35 18.67 0.35 16.26 0.46 17.18 2.64 17.18 2.17 0 2.29-0.8 2.29-18.33 0-16.49-0.23-18.32-2.06-18.67-1.03-0.23-2.18 0.35-2.52 1.15z"/>
		<path class="s0" d="m119.47 241.91c-2.07 2.18-2.64 4.12-2.64 8.71 0 5.15 0.35 5.95 2.29 5.95 2.75 0 3.67-3.2 3.21-11.34l-0.34-6.07z"/>
		<path class="s0" d="m254.28 244.55c-2.06 2.52-2.86 11.68-1.26 13.63 2.98 3.55 4.7 0.8 4.7-7.45 0-7.9-0.8-9.39-3.44-6.18z"/>
		<path class="s0" d="m424.6 221.75c-0.45 0.46-0.8 2.87-0.8 5.27 0 3.9 0.35 4.35 2.98 4.35 2.64 0 2.86-0.34 2.52-4.81-0.34-4.69-2.52-6.87-4.7-4.81z"/>
	</g>
</svg>